<svg width="200" height="56" viewBox="0 0 200 56" fill="none" xmlns="http://www.w3.org/2000/svg">
<path d="M198 0H2C0.89543 0 0 0.89543 0 2V54C0 55.1046 0.89543 56 2 56H198C199.105 56 200 55.1046 200 54V2C200 0.89543 199.105 0 198 0Z" fill="#23272C"/>
<path d="M113.685 24.418C114.298 24.418 114.829 24.528 115.274 24.7439C115.722 24.962 116.091 25.2558 116.388 25.6252C116.68 25.9966 116.898 26.4306 117.038 26.928C117.178 27.4268 117.248 27.963 117.248 28.537C117.248 29.4188 117.086 30.2518 116.76 31.0371C116.434 31.8235 115.991 32.5056 115.428 33.0875C114.866 33.6686 114.202 34.1267 113.436 34.4652C112.671 34.8039 111.84 34.9733 110.947 34.9733C110.832 34.9733 110.629 34.9699 110.342 34.964C110.056 34.9581 109.726 34.9286 109.357 34.8786C108.986 34.8268 108.593 34.7502 108.179 34.6476C107.764 34.5468 107.371 34.4056 107 34.2263L110.314 20.3009L113.282 19.8409L112.096 24.7825C112.35 24.668 112.606 24.5793 112.861 24.5147C113.117 24.4511 113.391 24.418 113.685 24.418V24.418ZM111.195 32.6184C111.642 32.6184 112.063 32.5085 112.459 32.2925C112.856 32.0763 113.198 31.7845 113.485 31.4209C113.772 31.0558 113.999 30.6444 114.164 30.1849C114.33 29.7253 114.414 29.2459 114.414 28.7471C114.414 28.1342 114.311 27.6562 114.107 27.3107C113.903 26.9665 113.525 26.7934 112.977 26.7934C112.797 26.7934 112.566 26.8277 112.278 26.889C111.99 26.954 111.733 27.0891 111.501 27.2922L110.238 32.5402C110.314 32.5536 110.382 32.5664 110.439 32.5785C110.495 32.5915 110.558 32.6007 110.619 32.6071C110.685 32.6144 110.76 32.6182 110.851 32.6182C110.941 32.6182 111.054 32.6184 111.195 32.6184V32.6184Z" fill="white"/>
<path d="M120.326 34.7067H117.491L119.885 24.6316H122.74L120.326 34.7067ZM121.706 23.404C121.31 23.404 120.951 23.2863 120.633 23.0502C120.312 22.8156 120.153 22.4544 120.153 21.9677C120.153 21.6999 120.207 21.4487 120.315 21.2117C120.425 20.9752 120.568 20.7716 120.747 20.5984C120.926 20.4267 121.134 20.2895 121.369 20.1862C121.606 20.0845 121.858 20.0336 122.127 20.0336C122.522 20.0336 122.879 20.1514 123.199 20.3875C123.517 20.6247 123.677 20.9859 123.677 21.47C123.677 21.7387 123.623 21.9908 123.514 22.2274C123.406 22.4639 123.263 22.6675 123.084 22.8407C122.906 23.0126 122.697 23.1493 122.462 23.2517C122.225 23.3551 121.973 23.404 121.706 23.404Z" fill="white"/>
<path d="M125.224 22.1214L128.194 21.6614L127.465 24.6311H130.645L130.071 26.9675H126.91L126.068 30.4917C125.99 30.7854 125.946 31.0598 125.934 31.3147C125.92 31.5709 125.952 31.7909 126.029 31.9761C126.105 32.1617 126.242 32.3048 126.441 32.4061C126.638 32.5089 126.921 32.5607 127.293 32.5607C127.599 32.5607 127.897 32.5316 128.185 32.4739C128.471 32.4172 128.761 32.3382 129.055 32.2348L129.267 34.4193C128.883 34.5598 128.469 34.6807 128.022 34.7824C127.574 34.8855 127.044 34.9352 126.431 34.9352C125.55 34.9352 124.868 34.8044 124.381 34.544C123.895 34.2817 123.552 33.9233 123.346 33.4697C123.144 33.0177 123.053 32.4966 123.078 31.9096C123.105 31.3211 123.193 30.7026 123.346 30.0512L125.224 22.1214V22.1214Z" fill="white"/>
<path d="M130.52 30.6835C130.52 29.8157 130.661 28.9973 130.941 28.2312C131.222 27.4644 131.625 26.7939 132.149 26.2184C132.671 25.6458 133.307 25.1921 134.056 24.8591C134.801 24.528 135.635 24.361 136.555 24.361C137.13 24.361 137.644 24.4154 138.096 24.5245C138.55 24.6344 138.961 24.7766 139.333 24.9549L138.355 27.1782C138.099 27.0746 137.834 26.9833 137.56 26.9005C137.286 26.8161 136.951 26.7754 136.555 26.7754C135.608 26.7754 134.86 27.1016 134.304 27.7518C133.749 28.4025 133.47 29.2783 133.47 30.3769C133.47 31.0281 133.61 31.5546 133.892 31.9574C134.173 32.3602 134.691 32.5605 135.443 32.5605C135.814 32.5605 136.173 32.5217 136.516 32.446C136.862 32.3694 137.167 32.2729 137.436 32.1589L137.648 34.438C137.289 34.5771 136.894 34.7027 136.46 34.8127C136.025 34.9189 135.508 34.974 134.908 34.974C134.116 34.974 133.445 34.8581 132.896 34.6298C132.348 34.398 131.894 34.0903 131.537 33.7005C131.178 33.3098 130.92 32.8536 130.761 32.3299C130.602 31.8067 130.52 31.257 130.52 30.6835V30.6835Z" fill="white"/>
<path d="M143.115 34.974C142.438 34.974 141.85 34.8708 141.352 34.6667C140.855 34.4626 140.443 34.1762 140.117 33.8048C139.791 33.4354 139.547 32.9976 139.38 32.4931C139.213 31.9888 139.132 31.4304 139.132 30.8185C139.132 30.051 139.255 29.2837 139.504 28.5186C139.752 27.7518 140.12 27.0628 140.607 26.4504C141.09 25.8371 141.686 25.3357 142.387 24.9447C143.088 24.5564 143.894 24.361 144.799 24.361C145.464 24.361 146.049 24.4644 146.554 24.6685C147.057 24.8721 147.471 25.1609 147.799 25.5304C148.123 25.9017 148.369 26.3376 148.535 26.8428C148.702 27.3462 148.784 27.906 148.784 28.5183C148.784 29.2835 148.662 30.0508 148.421 30.8183C148.18 31.582 147.821 32.2727 147.348 32.8864C146.876 33.4988 146.286 34 145.577 34.3893C144.869 34.7786 144.047 34.974 143.115 34.974V34.974ZM144.532 26.7757C144.112 26.7757 143.74 26.8977 143.422 27.1387C143.103 27.3826 142.834 27.6891 142.618 28.0588C142.4 28.4301 142.238 28.8351 142.128 29.2752C142.02 29.7163 141.966 30.1333 141.966 30.5295C141.966 31.1688 142.07 31.6667 142.272 32.025C142.478 32.3815 142.847 32.5607 143.384 32.5607C143.805 32.5607 144.175 32.4396 144.495 32.196C144.812 31.9541 145.081 31.6473 145.299 31.2769C145.516 30.9075 145.679 30.5013 145.789 30.0605C145.896 29.6208 145.951 29.2014 145.951 28.806C145.951 28.1683 145.848 27.6692 145.643 27.3114C145.439 26.9549 145.068 26.7757 144.532 26.7757Z" fill="white"/>
<path d="M151.873 34.7067H149.036L151.43 24.6316H154.286L151.873 34.7067V34.7067ZM153.251 23.404C152.855 23.404 152.497 23.2863 152.179 23.0502C151.86 22.8156 151.699 22.4544 151.699 21.9677C151.699 21.6999 151.754 21.4487 151.862 21.2117C151.971 20.9752 152.115 20.7716 152.294 20.5984C152.472 20.4267 152.681 20.2895 152.916 20.1862C153.152 20.0845 153.404 20.0336 153.672 20.0336C154.068 20.0336 154.426 20.1514 154.745 20.3875C155.064 20.6247 155.225 20.9859 155.225 21.47C155.225 21.7387 155.168 21.9908 155.061 22.2274C154.954 22.4639 154.81 22.6675 154.631 22.8407C154.451 23.0126 154.245 23.1493 154.009 23.2517C153.772 23.3551 153.52 23.404 153.251 23.404V23.404Z" fill="white"/>
<path d="M156.329 25.0897C156.545 25.0268 156.785 24.9511 157.046 24.8688C157.309 24.7865 157.602 24.7099 157.929 24.6408C158.253 24.5696 158.618 24.5119 159.02 24.4672C159.422 24.4216 159.88 24.3993 160.389 24.3993C161.884 24.3993 162.915 24.8348 163.484 25.703C164.052 26.5713 164.151 27.7596 163.782 29.2658L162.478 34.7058H159.624L160.888 29.3802C160.965 29.0477 161.025 28.7263 161.07 28.4121C161.115 28.1009 161.113 27.8265 161.06 27.5891C161.009 27.3544 160.891 27.1624 160.706 27.0136C160.519 26.8672 160.237 26.7936 159.853 26.7936C159.484 26.7936 159.108 26.8334 158.724 26.91L156.865 34.7055H154.01L156.329 25.0897V25.0897Z" fill="white"/>
<path d="M37.2188 32V23.2227H39.5859C40.8516 23.2227 41.8477 23.5977 42.5742 24.3477C43.3008 25.0898 43.6641 26.1797 43.6641 27.6172C43.6641 28.9844 43.3125 30.0586 42.6094 30.8398C41.9062 31.6133 40.8906 32 39.5625 32H37.2188ZM38.1562 31.2031H39.4219C40.4375 31.2031 41.2383 30.918 41.8242 30.3477C42.4102 29.7695 42.7031 28.8594 42.7031 27.6172C42.7031 26.3594 42.4102 25.4453 41.8242 24.875C41.2383 24.3047 40.4453 24.0195 39.4453 24.0195H38.1562V31.2031ZM45.6445 28.8477C45.6445 29.6445 45.8281 30.2773 46.1953 30.7461C46.5625 31.2148 47.0195 31.4492 47.5664 31.4492C48.1055 31.4492 48.5586 31.2148 48.9258 30.7461C49.3008 30.2773 49.4883 29.6445 49.4883 28.8477C49.4883 28.0352 49.3008 27.3984 48.9258 26.9375C48.5508 26.4766 48.0977 26.2461 47.5664 26.2461C47.0273 26.2461 46.5703 26.4766 46.1953 26.9375C45.8281 27.3984 45.6445 28.0352 45.6445 28.8477ZM44.7305 28.8477C44.7305 27.8867 44.9766 27.0859 45.4688 26.4453C45.9688 25.8047 46.668 25.4844 47.5664 25.4844C48.457 25.4844 49.1523 25.8047 49.6523 26.4453C50.1523 27.0859 50.4023 27.8867 50.4023 28.8477C50.4023 29.2539 50.3477 29.6484 50.2383 30.0312C50.1367 30.4141 49.9766 30.7734 49.7578 31.1094C49.5469 31.4375 49.25 31.7031 48.8672 31.9062C48.4922 32.1094 48.0586 32.2109 47.5664 32.2109C47.082 32.2109 46.6484 32.1133 46.2656 31.918C45.8906 31.7148 45.5938 31.4492 45.375 31.1211C45.1641 30.7852 45.0039 30.4258 44.8945 30.043C44.7852 29.6602 44.7305 29.2617 44.7305 28.8477ZM51.8555 32V25.6953H52.7461V26.7734H52.7578C52.8516 26.4609 53.082 26.168 53.4492 25.8945C53.8164 25.6211 54.2539 25.4844 54.7617 25.4844C55.3477 25.4844 55.8281 25.668 56.2031 26.0352C56.5859 26.4023 56.7773 27.0312 56.7773 27.9219V32H55.8633V28.0742C55.8633 26.8555 55.4258 26.2461 54.5508 26.2461C54.0664 26.2461 53.6484 26.4414 53.2969 26.832C52.9453 27.2227 52.7695 27.6914 52.7695 28.2383V32H51.8555ZM59.0508 30.3828C59.0508 30.6797 59.1758 30.9336 59.4258 31.1445C59.6758 31.3477 60.0195 31.4492 60.457 31.4492C61.0117 31.4492 61.4844 31.2695 61.875 30.9102C62.2734 30.5508 62.4727 30.0938 62.4727 29.5391V28.6602C62.1289 28.7461 61.582 28.8477 60.832 28.9648C60.2227 29.0742 59.7734 29.2422 59.4844 29.4688C59.1953 29.6953 59.0508 30 59.0508 30.3828ZM58.1367 30.4531C58.1367 29.2812 59.043 28.5547 60.8555 28.2734C61.668 28.1406 62.207 28.0312 62.4727 27.9453V27.582C62.4727 27.1914 62.332 26.8672 62.0508 26.6094C61.7695 26.3516 61.3711 26.2227 60.8555 26.2227C60.4805 26.2227 60.1172 26.3125 59.7656 26.4922C59.4219 26.6641 59.1289 26.8984 58.8867 27.1953L58.3008 26.7031C58.6133 26.3438 58.9883 26.0508 59.4258 25.8242C59.8711 25.5977 60.3398 25.4844 60.832 25.4844C62.5195 25.4844 63.3633 26.3086 63.3633 27.957V32H62.4961V30.9688C62.3711 31.3047 62.1133 31.5977 61.7227 31.8477C61.332 32.0898 60.8711 32.2109 60.3398 32.2109C59.6445 32.2109 59.1016 32.0469 58.7109 31.7188C58.3281 31.3906 58.1367 30.9688 58.1367 30.4531ZM64.4766 26.457V25.6953H65.5781V23.6797H66.4922V25.6953H68.1562V26.457H66.4922V30.1484C66.4922 30.5391 66.5664 30.8164 66.7148 30.9805C66.8633 31.1445 67.1016 31.2266 67.4297 31.2266H68.1562V32H67.3125C66.1562 32 65.5781 31.4102 65.5781 30.2305V26.457H64.4766ZM69.0352 28.8008C69.0352 27.8164 69.3008 27.0195 69.832 26.4102C70.3633 25.793 71.0508 25.4844 71.8945 25.4844C72.7539 25.4844 73.4297 25.7852 73.9219 26.3867C74.4141 26.9805 74.6602 27.7422 74.6602 28.6719C74.6602 28.7812 74.6523 28.9375 74.6367 29.1406H69.9492C69.9492 29.7734 70.125 30.3164 70.4766 30.7695C70.8281 31.2227 71.3164 31.4492 71.9414 31.4492C72.3477 31.4492 72.707 31.3555 73.0195 31.168C73.332 30.9727 73.5742 30.7148 73.7461 30.3945L74.5195 30.6289C74.3242 31.0898 74.0078 31.4688 73.5703 31.7656C73.1328 32.0625 72.5898 32.2109 71.9414 32.2109C71.0664 32.2109 70.3633 31.8984 69.832 31.2734C69.3008 30.6484 69.0352 29.8242 69.0352 28.8008ZM69.9727 28.4492H73.7461C73.7461 27.832 73.5781 27.3125 73.2422 26.8906C72.9062 26.4609 72.457 26.2461 71.8945 26.2461C71.3242 26.2461 70.8633 26.4648 70.5117 26.9023C70.168 27.3398 69.9883 27.8555 69.9727 28.4492ZM78.1758 25.6953H79.1836L80.1094 29.6094C80.3047 30.5078 80.418 31.0273 80.4492 31.168H80.4961C80.5352 30.9805 80.5977 30.7109 80.6836 30.3594C80.7695 30.0078 80.8281 29.7578 80.8594 29.6094L81.8203 25.6953H82.8984L83.8711 29.6562C83.9023 29.7891 83.957 30.0195 84.0352 30.3477C84.1133 30.6758 84.1758 30.9492 84.2227 31.168H84.2695C84.293 31.0742 84.4062 30.5547 84.6094 29.6094L85.5352 25.6953H86.543L84.8086 32H83.6719L82.7227 28.2031C82.5117 27.25 82.3984 26.7344 82.3828 26.6562H82.3359C82.1484 27.5391 82.0352 28.0547 81.9961 28.2031L81.0469 32H79.9102L78.1758 25.6953ZM87.6562 24.2773V23.0938H88.8047V24.2773H87.6562ZM87.7969 32V25.6953H88.6875V32H87.7969ZM90.082 26.457V25.6953H91.1836V23.6797H92.0977V25.6953H93.7617V26.457H92.0977V30.1484C92.0977 30.5391 92.1719 30.8164 92.3203 30.9805C92.4688 31.1445 92.707 31.2266 93.0352 31.2266H93.7617V32H92.918C91.7617 32 91.1836 31.4102 91.1836 30.2305V26.457H90.082ZM95.1328 32V22.8945H96.0234V26.7148H96.0469C96.2031 26.3789 96.4531 26.0898 96.7969 25.8477C97.1484 25.6055 97.5469 25.4844 97.9922 25.4844C99.3516 25.4844 100.031 26.2969 100.031 27.9219V32H99.1406V28.0742C99.1406 26.8555 98.7031 26.2461 97.8281 26.2461C97.3438 26.2461 96.9219 26.4453 96.5625 26.8438C96.2031 27.2422 96.0234 27.7148 96.0234 28.2617V32H95.1328Z" fill="white"/>
</svg>
