<?xml version="1.0" encoding="utf-8"?>
<!-- Generator: Adobe Illustrator 22.1.0, SVG Export Plug-In . SVG Version: 6.00 Build 0)  -->
<svg version="1.1" id="Layer_1" xmlns="http://www.w3.org/2000/svg" xmlns:xlink="http://www.w3.org/1999/xlink" x="0px" y="0px"
	 viewBox="0 0 210 90" style="enable-background:new 0 0 210 90;" xml:space="preserve">
<style type="text/css">
	.st0{fill:#868686;}
</style>
<path class="st0" d="M108.8,34c0,1.6-1.3,2.8-2.8,2.8c0,0,0,0,0,0c-1.6,0-2.8-1.3-2.8-2.8c0,0,0,0,0,0c0-1.6,1.2-2.8,2.8-2.8
	C107.5,31.2,108.8,32.5,108.8,34z M97,39.7v0.7c0,0-1.4-1.8-4.2-1.8c-4.8,0-8.5,3.6-8.5,8.7c0,5,3.7,8.7,8.5,8.7
	c2.9,0,4.2-1.8,4.2-1.8V55c0,0.3,0.3,0.6,0.6,0.6h3.5V39.1h-3.5C97.3,39.1,97,39.4,97,39.7z M97,50.3c-0.7,1-2,1.8-3.5,1.8
	c-2.8,0-4.9-1.7-4.9-4.7s2.1-4.7,4.9-4.7c1.5,0,2.9,0.9,3.5,1.8L97,50.3L97,50.3z M103.8,39.1h4.2v16.4h-4.2V39.1z M166.5,38.7
	c-2.9,0-4.2,1.8-4.2,1.8v-9.2h-4.2v24.4h3.5c0.4,0,0.6-0.3,0.6-0.6v-0.7c0,0,1.4,1.8,4.2,1.8c4.8,0,8.5-3.7,8.5-8.7
	S171.2,38.7,166.5,38.7z M165.8,52c-1.6,0-2.9-0.8-3.5-1.8v-5.9c0.7-0.9,2.1-1.8,3.5-1.8c2.8,0,4.9,1.7,4.9,4.7S168.6,52,165.8,52
	L165.8,52z M155.9,45.8v9.8h-4.2v-9.3c0-2.7-0.9-3.8-3.2-3.8c-1.3,0-2.6,0.7-3.4,1.6v11.5h-4.2V39.1h3.3c0.4,0,0.6,0.3,0.6,0.6v0.7
	c1.2-1.3,2.8-1.8,4.5-1.8c1.8,0,3.4,0.5,4.6,1.6C155.3,41.5,155.9,43.1,155.9,45.8z M130.7,38.7c-2.9,0-4.2,1.8-4.2,1.8v-9.2h-4.2
	v24.4h3.5c0.3,0,0.6-0.3,0.6-0.6v-0.7c0,0,1.4,1.8,4.2,1.8c4.8,0,8.5-3.7,8.5-8.7C139.1,42.4,135.4,38.7,130.7,38.7z M130,52
	c-1.6,0-2.9-0.8-3.5-1.8v-5.9c0.7-0.9,2.1-1.8,3.5-1.8c2.8,0,4.9,1.7,4.9,4.7S132.8,52,130,52L130,52z M118.6,38.7
	c1.3,0,1.9,0.2,1.9,0.2v3.9c0,0-3.5-1.2-5.7,1.3v11.5h-4.2V39.1h3.5c0.3,0,0.6,0.3,0.6,0.6v0.7C115.6,39.5,117.3,38.7,118.6,38.7z
	 M75,54.1c-0.2-0.5-0.4-1.1-0.7-1.6c-0.3-0.8-0.7-1.5-1-2.2l0,0C70.2,43.6,67,37,63.6,30.5l-0.1-0.3c-0.4-0.7-0.7-1.4-1-2.1
	c-0.4-0.8-0.9-1.6-1.6-2.4C59.5,24,57.5,23,55.3,23c-2.2,0-4.2,1-5.6,2.6c-0.7,0.8-1.1,1.6-1.6,2.4c-0.3,0.7-0.7,1.4-1,2.1L47,30.4
	c-3.4,6.6-6.6,13.2-9.7,19.8l0,0.1c-0.3,0.7-0.7,1.4-1,2.2c-0.2,0.5-0.5,1-0.7,1.6c-0.6,1.6-0.7,3.1-0.5,4.7c0.5,3.3,2.6,6,5.7,7.3
	c1.1,0.5,2.3,0.7,3.5,0.7c0.3,0,0.8,0,1.1-0.1c1.4-0.2,2.9-0.7,4.4-1.5c1.8-1,3.5-2.4,5.4-4.5c1.9,2.1,3.7,3.5,5.4,4.5
	c1.4,0.8,2.9,1.3,4.4,1.5c0.3,0,0.8,0.1,1.1,0.1c1.2,0,2.4-0.2,3.5-0.7c3.1-1.2,5.2-4,5.7-7.3C75.7,57.2,75.6,55.7,75,54.1z
	 M55.3,56.4c-2.4-3-3.9-5.8-4.4-8.1c-0.2-1-0.3-1.9-0.1-2.7c0.1-0.7,0.3-1.3,0.7-1.8c0.8-1.2,2.2-1.9,3.8-1.9s3.1,0.7,3.8,1.9
	c0.3,0.5,0.6,1.1,0.7,1.8c0.1,0.8,0.1,1.7-0.1,2.7C59.2,50.5,57.7,53.3,55.3,56.4z M72.7,58.4c-0.3,2.3-1.8,4.2-4,5.1
	c-1.1,0.4-2.2,0.6-3.3,0.4c-1.1-0.1-2.2-0.5-3.3-1.1c-1.6-0.9-3.1-2.2-5-4.2c2.9-3.5,4.6-6.8,5.3-9.7c0.3-1.4,0.3-2.6,0.2-3.7
	c-0.2-1.1-0.6-2.1-1.2-3c-1.4-2-3.6-3.1-6.2-3.1c-2.5,0-4.8,1.2-6.2,3.1c-0.6,0.9-1,1.9-1.2,3c-0.2,1.2-0.1,2.5,0.2,3.7
	c0.7,2.9,2.4,6.2,5.3,9.7c-1.8,2-3.4,3.4-5,4.2c-1.1,0.7-2.2,1-3.3,1.1c-1.1,0.1-2.3,0-3.3-0.4c-2.1-0.9-3.7-2.8-4-5.1
	c-0.1-1.2,0-2.3,0.4-3.4c0.1-0.4,0.3-0.9,0.6-1.4c0.3-0.7,0.7-1.4,1-2.2l0-0.1c3.1-6.6,6.3-13.2,9.6-19.6l0.1-0.3
	c0.3-0.7,0.7-1.4,1-2c0.3-0.7,0.7-1.4,1.2-1.9c0.9-1,2.1-1.6,3.5-1.6c1.4,0,2.6,0.6,3.5,1.6c0.5,0.6,0.9,1.2,1.2,1.9
	c0.3,0.7,0.7,1.4,1,2l0.1,0.3c3.3,6.5,6.5,13.1,9.6,19.7v0c0.3,0.7,0.7,1.5,1,2.2c0.2,0.5,0.4,1,0.6,1.4
	C72.8,56.2,72.9,57.3,72.7,58.4z"/>
</svg>
