<?xml version="1.0" encoding="utf-8"?>
<!-- Generator: Adobe Illustrator 22.1.0, SVG Export Plug-In . SVG Version: 6.00 Build 0)  -->
<svg version="1.1" id="layer" xmlns="http://www.w3.org/2000/svg" xmlns:xlink="http://www.w3.org/1999/xlink" x="0px" y="0px"
	 viewBox="0 0 600 108.6" style="enable-background:new 0 0 600 108.6;" xml:space="preserve">
<style type="text/css">
	.st0{fill:#161616;}
	.st1{fill:#FF9500;}
</style>
<g transform="matrix(1,0,0,1,-78.7066,-80.0581)">
	<g transform="matrix(1,0,0,1,-56.1287,-2565.32)">
		<g transform="matrix(1,0,0,1,0,432.551)">
			<g transform="matrix(0.976968,0,0,0.969503,1.763,69.3723)">
				<g transform="matrix(0.267419,0,0,0.267419,136.209,2223.5)">
					<path class="st0" d="M257.7,272.8L206.8,298V108.8l50.9-25.2V272.8z M326.8,238.6l-50.9,25.2V74.6l50.9-25.2l0,0V238.6z
						 M345,229.6V40.4l50.9-25.2v189.2L345,229.6z"/>
				</g>
				<g transform="matrix(0.267419,0,0,0.267419,136.209,2223.5)">
					<path class="st1" d="M189,247v50.9L0,204.4v-50.9L189,247z M189,177.8v50.9L0,135.2V84.3L189,177.8z M189,108.7v50.9L0,66.1
						V15.2L189,108.7z"/>
				</g>
			</g>
			<g>
				<g transform="matrix(1.26258,0,0,1.26258,-294.674,502.516)">
					<path class="st1" d="M447,1355.1v60h30.7c14.4,0,23.6-6.5,23.6-16.8c0-7.6-4.7-13.6-12.1-15.1c6.2-1.8,10.2-6.9,10.2-12.9
						c0-9.2-9-15.1-23-15.1L447,1355.1L447,1355.1z M464.7,1368.5h10.8c3.5,0,5.7,1.9,5.7,5c0,3.2-2.2,5.2-5.7,5.2h-10.8V1368.5z
						 M464.7,1390.8h10.8c4.5,0,7.4,2,7.4,5.3c0,3.5-2.8,5.7-7.4,5.7h-10.8V1390.8z"/>
				</g>
				<g transform="matrix(1.26258,0,0,1.26258,-294.674,502.516)">
					<rect x="512" y="1355.1" class="st1" width="17.8" height="60"/>
				</g>
				<g transform="matrix(1.26258,0,0,1.26258,-297.825,502.516)">
					<path class="st1" d="M589.2,1369.3v-14.2h-46.1v14.2h14.1v45.8h17.9v-45.8H589.2z"/>
				</g>
				<g transform="matrix(1,0,0,1,-3.62618,0)">
					<g transform="matrix(1.26258,0,0,1.26258,-295.657,502.516)">
						<path class="st1" d="M628.9,1354.6c-18.6,0-32.3,12.9-32.3,30.4c0,17.7,13.4,30.9,31.7,30.9c9.1,0,18.9-4.5,25.4-11.6
							l-10.3-11c-4.1,4.2-9.7,6.9-14.3,6.9c-8.1,0-14.3-6.7-14.3-15.5s6.2-15.4,14.3-15.4c5,0,10.5,3.2,14.3,8l10.3-12.1
							C647.6,1358.7,637.9,1354.6,628.9,1354.6z"/>
					</g>
					<g transform="matrix(1.26258,0,0,1.26258,-295.657,502.516)">
						<path class="st1" d="M690.8,1354.6c-18.8,0-32.7,12.8-32.7,30.5s13.9,30.8,32.7,30.8s32.7-13.2,32.7-30.8
							C723.5,1367.5,709.6,1354.6,690.8,1354.6z M691.1,1369.5c7.9,0,14.2,6.6,14.2,15.7s-6.3,15.8-14.2,15.8s-14.7-6.8-14.7-15.8
							S683.1,1369.5,691.1,1369.5z"/>
					</g>
					<g transform="matrix(1.26258,0,0,1.26258,-295.657,502.516)">
						<rect x="733.6" y="1355.1" class="st1" width="17.8" height="60"/>
					</g>
					<g transform="matrix(1.26258,0,0,1.26258,-295.985,502.516)">
						<path class="st1" d="M819.3,1415.1v-60H803v33.5l-25.4-33.5h-15.2v60h16.3v-33.4l25.4,33.4H819.3z"/>
					</g>
				</g>
			</g>
			<g transform="matrix(0.728286,0,0,0.728286,-67.9073,1275.13)">
				<path class="st0" d="M493,1436.6v-25.9h-9.1l-5.7,13.5l-5.7-13.5h-9.1v25.9h7.5v-14.2l4.4,11.7h5.6l4.4-11.7v14.2H493z"/>
				<path class="st0" d="M515.8,1433l1.3,3.7h9.1l-10.5-25.9h-8.8l-10.9,25.9h8.8l1.3-3.7H515.8z M513.7,1426.8h-5.4l2.7-7.6
					L513.7,1426.8z"/>
				<path class="st0" d="M545.2,1423v6c-1.3,0.5-2.5,0.9-3.4,0.9c-3.4,0-5.8-2.6-5.8-6.2c0-3.5,2.4-6.1,5.8-6.1
					c2.1,0,4.7,1.1,6.4,2.7l4.8-5.9c-2.8-2.4-7.2-4-11.2-4c-8.5,0-14.6,5.6-14.6,13.2c0,7.7,5.9,13.3,14,13.3
					c3.7,0,8.5-1.4,11.3-3.3v-10.7L545.2,1423L545.2,1423z"/>
				<path class="st0" d="M574.8,1433l1.3,3.7h9.1l-10.5-25.9h-8.8l-10.9,25.9h8.8l1.3-3.7H574.8z M572.7,1426.8h-5.4l2.7-7.6
					L572.7,1426.8z"/>
				<path class="st0" d="M610.6,1416.1v-5.4h-23.1v6.6h11.6l-12.1,14v5.4h23.8v-6.6h-12.3L610.6,1416.1z"/>
				<rect x="614.9" y="1410.7" class="st0" width="8.6" height="25.9"/>
				<path class="st0" d="M653.8,1436.6v-25.9h-7.7v13.3l-10.2-13.3h-7.2v25.9h7.8v-13.2l10.2,13.2H653.8z"/>
				<path class="st0" d="M680.9,1417.2v-6.5H659v25.9h22.3v-6.5h-13.7v-3.2h12.1v-6.5h-12.1v-3.2L680.9,1417.2L680.9,1417.2z"/>
			</g>
		</g>
	</g>
</g>
</svg>
