<?xml version="1.0" encoding="utf-8"?>
<!-- Generator: Adobe Illustrator 23.0.3, SVG Export Plug-In . SVG Version: 6.00 Build 0)  -->
<svg version="1.1" id="Layer_1" xmlns="http://www.w3.org/2000/svg" xmlns:xlink="http://www.w3.org/1999/xlink" x="0px" y="0px"
	 viewBox="0 0 173 33" style="enable-background:new 0 0 173 33;" xml:space="preserve">
<style type="text/css">
	.st0{fill:#35290D;}
	.st1{fill:#070707;}
</style>
<path class="st0" d="M14.8,16.6c0,0.9,0.7,1.6,1.6,1.6s1.6-0.7,1.6-1.6S17.3,15,16.4,15S14.8,15.7,14.8,16.6 M28.3,15
	c-0.9,0-1.6,0.7-1.6,1.6c0,0.9,0.7,1.6,1.6,1.6s1.6-0.7,1.6-1.6S29.2,15,28.3,15 M28.3,27.1c-0.9,0-1.6,0.7-1.6,1.6s0.7,1.6,1.6,1.6
	s1.6-0.7,1.6-1.6S29.2,27.1,28.3,27.1"/>
<path class="st0" d="M31.7,1.7c-1.6-2-4.5-2.1-6.2-0.5l-0.2,0.2l-0.4,0.3c-1.6,1.3-4,1.2-5.5-0.3V1.3c-0.5-0.5-1.2-0.9-1.9-1.1
	c-0.1,0-0.3-0.1-0.4-0.1h-1.6c-0.1,0-0.2,0-0.3,0.1H15c-0.1,0-0.2,0.1-0.3,0.1c0,0-0.1,0-0.1,0.1c-0.1,0-0.2,0.1-0.3,0.1
	c0,0-0.1,0-0.1,0.1c-0.1,0.1-0.2,0.1-0.3,0.2c0,0-0.1,0-0.1,0.1C13.7,1,13.6,1,13.5,1.1l-0.1,0.1l-0.2,0.2l-0.4,0.3
	c-1.6,1.3-4,1.2-5.4-0.3c0,0-0.1,0-0.1-0.1L7.1,1.1C6.5,0.6,5.8,0.2,5,0.1H3.2c0,0.1-0.1,0.1-0.2,0.2H2.9c-0.5,0.2-1,0.4-1.4,0.8
	L1.4,1.2L1.1,1.5C0.7,1.9,0.5,2.4,0.3,2.8c0,0.1-0.1,0.2-0.1,0.3S0.1,3.3,0.1,3.5C0,4.2,0,4.9,0.2,5.6c0,0.1,0.1,0.2,0.1,0.3V6
	c0,0.1,0.1,0.2,0.1,0.3c0.1,0.1,0.1,0.2,0.2,0.4C0.8,6.8,1,7,1.1,7.1l0.2,0.2l0.2,0.2C3,9,3,11.6,1.4,13.2c-0.2,0.2-0.5,0.5-0.6,0.7
	c-0.1,0.1-0.1,0.2-0.2,0.4v0.1c-0.1,0.1-0.1,0.2-0.2,0.3v0.1c0,0.1-0.1,0.2-0.1,0.3v0.1c0,0.1,0,0.2-0.1,0.3V17c0,0.1,0,0.2,0.1,0.3
	v0.1c0.2,0.7,0.6,1.4,1.2,2c1.6,1.6,1.6,4.2,0,5.8l-0.1,0.1l-0.2,0.2v0.1C1.1,25.7,1,25.8,1,25.9c0,0,0,0.1-0.1,0.1
	c-0.1,0.1-0.1,0.2-0.2,0.3l-0.1,0.1c0,0.1-0.1,0.1-0.1,0.2s-0.1,0.1-0.1,0.2s0,0.1-0.1,0.2C0.1,27.4,0,27.9,0,28.3v0.8
	c0.1,0.3,0.1,0.6,0.3,0.8c0,0.1,0.1,0.2,0.1,0.2s0,0.1,0.1,0.1c0,0.1,0.1,0.2,0.1,0.3c0,0,0,0.1,0.1,0.1C0.8,30.8,0.9,30.9,1,31
	c0,0,0,0.1,0.1,0.1c0,0,0,0.1,0.1,0.1c0,0.1,0.1,0.1,0.1,0.1l0.1,0.1c0.1,0.1,0.2,0.1,0.2,0.2l0.1,0.1c0,0,0.1,0,0.1,0.1
	C1.9,31.9,2,32,2.1,32c0,0,0.1,0,0.1,0.1c0.1,0.1,0.2,0.1,0.3,0.2h0.1c0.1,0.1,0.2,0.1,0.4,0.1c0.1,0,0.3,0.1,0.4,0.1h0.1
	c0.1,0,0.2,0,0.3,0.1h0.9c0.3,0,0.5-0.1,0.8-0.1h0.1c0.1,0,0.2-0.1,0.3-0.1H6c0.1,0,0.2-0.1,0.3-0.1h0.1c0.2-0.1,0.5-0.3,0.7-0.4
	l0.3-0.3l0.1-0.1c1.6-1.7,4.2-1.7,5.8,0c1.8,1.9,4.8,1.8,6.5-0.3c1.2-1.5,1.2-3.7,0-5.3c-1.6-2-4.5-2.1-6.2-0.5l-0.2,0.2L13,25.9
	c-1.6,1.3-4,1.2-5.5-0.3l-0.2-0.2L7,25c-1.3-1.6-1.2-4,0.3-5.5c0.9-0.8,1.3-1.9,1.3-3v-0.3c0-1-0.4-2-1.2-2.7c0-0.1-0.1-0.1-0.1-0.2
	L7,12.9c-1.3-1.6-1.2-4,0.3-5.5l0.1-0.1l0.1-0.1c1.6-1.7,4.2-1.7,5.8,0l0.1,0.1l0.1,0.1l0.2,0.2c0.1,0,0.1,0.1,0.2,0.1
	s0.1,0.1,0.2,0.1s0.1,0.1,0.2,0.1S14.4,8,14.5,8s0.1,0.1,0.2,0.1s0.1,0.1,0.2,0.1s0.1,0,0.2,0.1c0.1,0,0.1,0,0.2,0.1H17
	c0.1,0,0.2,0,0.3-0.1h0.2c0.1,0,0.2-0.1,0.3-0.1h0.1c0.1,0,0.2-0.1,0.4-0.2c0.4-0.2,0.8-0.5,1.1-0.8l0.1-0.1c1.6-1.7,4.2-1.7,5.8,0
	c1.7,2,4.8,1.9,6.4-0.2C32.9,5.4,32.9,3.2,31.7,1.7"/>
<path class="st1" d="M54.5,14.1c-0.6-0.6-1.1-1-1.8-1.3c-0.6-0.3-1.3-0.5-2.2-0.5c-0.8,0-1.6,0.2-2.2,0.5c-0.6,0.3-1.1,0.7-1.5,1.3
	c-0.4,0.5-0.7,1.1-0.9,1.8s-0.3,1.4-0.3,2.1c0,0.7,0.1,1.4,0.4,2.1c0.2,0.7,0.6,1.2,1,1.7s1,0.9,1.6,1.2c0.6,0.3,1.3,0.4,2.1,0.4
	c0.9,0,1.6-0.2,2.2-0.5c0.6-0.3,1.2-0.7,1.7-1.3l2.1,2.2c-0.8,0.9-1.7,1.5-2.7,1.9s-2.1,0.6-3.3,0.6s-2.4-0.2-3.4-0.6
	s-1.9-1-2.6-1.7c-0.7-0.7-1.3-1.6-1.7-2.6s-0.6-2.2-0.6-3.4c0-1.2,0.2-2.4,0.6-3.4c0.4-1,1-1.9,1.7-2.7c0.7-0.7,1.6-1.3,2.6-1.7
	s2.2-0.6,3.4-0.6S53,9.8,54,10.2c1.1,0.4,2,1.1,2.8,1.9L54.5,14.1 M61.3,17.8c0,0.8,0.1,1.6,0.4,2.2c0.2,0.7,0.6,1.3,1,1.8
	s1,0.9,1.6,1.1c0.6,0.3,1.4,0.4,2.2,0.4c0.8,0,1.5-0.1,2.2-0.4c0.6-0.3,1.2-0.7,1.6-1.1c0.4-0.5,0.8-1.1,1-1.8
	c0.2-0.7,0.4-1.4,0.4-2.2c0-0.8-0.1-1.6-0.4-2.2c-0.2-0.7-0.6-1.3-1-1.8s-1-0.9-1.6-1.1c-0.6-0.3-1.4-0.4-2.2-0.4
	c-0.8,0-1.5,0.1-2.2,0.4c-0.6,0.3-1.2,0.7-1.6,1.1c-0.4,0.5-0.8,1.1-1,1.8S61.3,17,61.3,17.8z M58.1,17.8c0-1.2,0.2-2.3,0.6-3.3
	c0.4-1,1-1.9,1.8-2.7s1.6-1.4,2.7-1.8c1-0.4,2.1-0.7,3.3-0.7s2.3,0.2,3.3,0.7c1,0.4,1.9,1,2.7,1.8c0.8,0.8,1.3,1.7,1.8,2.7
	c0.4,1,0.6,2.1,0.6,3.3s-0.2,2.3-0.6,3.3s-1,1.9-1.8,2.7c-0.8,0.8-1.6,1.3-2.7,1.8c-1,0.4-2.1,0.7-3.3,0.7c-1.2,0-2.3-0.2-3.3-0.7
	c-1-0.4-1.9-1-2.7-1.8s-1.3-1.6-1.8-2.7C58.4,20.1,58.1,19,58.1,17.8z M78,25.9h3v-16h-3V25.9z M77.3,4.1c0-0.6,0.2-1.1,0.6-1.6
	c0.4-0.4,0.9-0.7,1.5-0.7s1.1,0.2,1.5,0.7c0.4,0.4,0.6,1,0.6,1.6s-0.2,1.1-0.6,1.6c-0.4,0.4-0.9,0.7-1.5,0.7s-1.1-0.2-1.5-0.7
	C77.5,5.3,77.3,4.7,77.3,4.1z M85.2,9.9h3v2.5h0.1c0.4-0.9,1-1.6,2-2.1c0.9-0.5,2-0.8,3.3-0.8c0.8,0,1.5,0.1,2.2,0.4
	c0.7,0.2,1.3,0.6,1.8,1.1s0.9,1.1,1.3,1.9c0.3,0.8,0.5,1.7,0.5,2.8V26h-3v-9.5c0-0.7-0.1-1.4-0.3-1.9c-0.2-0.5-0.5-1-0.8-1.3
	s-0.7-0.6-1.2-0.7c-0.4-0.1-0.9-0.2-1.4-0.2c-0.6,0-1.2,0.1-1.7,0.3s-1,0.5-1.4,1c-0.4,0.4-0.7,1-0.9,1.7c-0.2,0.7-0.3,1.5-0.3,2.4
	v8.3h-3V9.9 M110.5,23.4c0.8,0,1.5-0.1,2.2-0.4s1.2-0.7,1.7-1.2c0.4-0.5,0.8-1.1,1-1.8c0.2-0.7,0.4-1.4,0.4-2.3
	c0-0.8-0.1-1.6-0.4-2.3c-0.2-0.7-0.6-1.3-1-1.8c-0.5-0.5-1-0.9-1.7-1.2s-1.4-0.4-2.2-0.4c-0.8,0-1.5,0.1-2.2,0.4
	c-0.7,0.3-1.2,0.7-1.7,1.2c-0.4,0.5-0.8,1.1-1,1.8s-0.4,1.4-0.4,2.3c0,0.8,0.1,1.6,0.4,2.3c0.2,0.7,0.6,1.3,1,1.8s1,0.9,1.7,1.2
	C108.9,23.2,109.7,23.4,110.5,23.4z M118.8,25.8h-3v-2.3h-0.1c-0.6,0.9-1.4,1.5-2.4,2s-2.1,0.7-3.2,0.7c-1.2,0-2.4-0.2-3.4-0.6
	s-1.9-1-2.6-1.8s-1.3-1.7-1.6-2.7c-0.4-1-0.6-2.1-0.6-3.3c0-1.2,0.2-2.3,0.6-3.4c0.4-1,0.9-1.9,1.6-2.7s1.6-1.4,2.6-1.8
	c1-0.4,2.1-0.6,3.4-0.6c1.1,0,2.2,0.2,3.2,0.7s1.8,1.2,2.3,2h0.1V0h3L118.8,25.8L118.8,25.8z M134.1,16.5c0-0.7-0.1-1.3-0.3-1.9
	c-0.2-0.6-0.5-1.1-0.9-1.5s-0.9-0.7-1.4-1c-0.6-0.2-1.2-0.4-2-0.4c-0.7,0-1.4,0.1-2,0.4c-0.6,0.3-1.1,0.6-1.6,1.1
	c-0.4,0.4-0.8,0.9-1,1.5s-0.4,1.1-0.4,1.6h9.6L134.1,16.5z M124.5,19c0,0.7,0.2,1.3,0.5,1.9s0.7,1.1,1.2,1.5s1.1,0.7,1.7,0.9
	c0.7,0.2,1.3,0.3,2,0.3c0.9,0,1.8-0.2,2.5-0.7c0.7-0.4,1.3-1,1.9-1.7l2.3,1.8c-1.7,2.2-4.1,3.3-7.1,3.3c-1.3,0-2.4-0.2-3.4-0.6
	s-1.9-1-2.6-1.8s-1.3-1.6-1.6-2.7c-0.4-1-0.6-2.1-0.6-3.3c0-1.2,0.2-2.3,0.6-3.3s1-1.9,1.7-2.7s1.6-1.3,2.6-1.8
	c1-0.4,2.1-0.6,3.3-0.6c1.4,0,2.6,0.2,3.6,0.7s1.8,1.1,2.4,1.9c0.6,0.8,1.1,1.7,1.4,2.7c0.3,1,0.4,2,0.4,3.1V19H124.5L124.5,19z
	 M149.1,13.9c-0.4-0.4-0.8-0.8-1.3-1.1s-1.2-0.5-1.9-0.5s-1.3,0.2-1.9,0.5c-0.5,0.3-0.8,0.7-0.8,1.3c0,0.5,0.2,0.9,0.5,1.1
	c0.3,0.3,0.7,0.5,1.1,0.7c0.4,0.2,0.9,0.3,1.3,0.4c0.5,0.1,0.9,0.2,1.2,0.2c0.6,0.2,1.3,0.3,1.8,0.6c0.6,0.2,1.1,0.5,1.5,0.9
	s0.7,0.8,1,1.3c0.2,0.5,0.4,1.1,0.4,1.9c0,0.9-0.2,1.7-0.6,2.3c-0.4,0.6-0.9,1.2-1.5,1.6s-1.3,0.7-2.1,0.9c-0.8,0.2-1.6,0.3-2.3,0.3
	c-1.3,0-2.5-0.2-3.5-0.6s-1.9-1.1-2.7-2.2l2.3-1.9c0.5,0.5,1,0.9,1.6,1.3s1.3,0.6,2.2,0.6c0.4,0,0.8,0,1.2-0.1s0.7-0.2,1-0.4
	c0.3-0.2,0.5-0.4,0.7-0.6c0.2-0.3,0.3-0.6,0.3-0.9c0-0.4-0.1-0.8-0.4-1.1c-0.3-0.3-0.6-0.5-1-0.7s-0.8-0.3-1.2-0.4l-1.2-0.3
	c-0.6-0.2-1.3-0.3-1.8-0.5c-0.6-0.2-1.1-0.5-1.5-0.8s-0.8-0.8-1.1-1.3s-0.4-1.2-0.4-1.9c0-0.8,0.2-1.6,0.5-2.2
	c0.3-0.6,0.8-1.1,1.4-1.5c0.6-0.4,1.2-0.7,1.9-0.9s1.5-0.3,2.2-0.3c1.1,0,2.1,0.2,3.1,0.6c1,0.4,1.8,1.1,2.4,2L149.1,13.9
	 M154.9,0.4h3v16.2l6.8-6.8h4.1l-7.3,7.2l8,8.6h-4.3l-7.3-8.2v8.2h-3V0.4"/>
</svg>
