<?xml version="1.0" encoding="utf-8"?>
<!-- Generator: Adobe Illustrator 22.1.0, SVG Export Plug-In . SVG Version: 6.00 Build 0)  -->
<svg version="1.1" id="Layer_1" xmlns="http://www.w3.org/2000/svg" xmlns:xlink="http://www.w3.org/1999/xlink" x="0px" y="0px"
	 viewBox="0 0 210 90" style="enable-background:new 0 0 210 90;" xml:space="preserve">
<style type="text/css">
	.st0{fill:#868686;}
</style>
<g>
	<path class="st0" d="M61.9,32.1C53.8,32.1,47,35.6,47,46c0,8.2,4.6,13.4,15.1,13.4c12.4,0,13.2-8.2,13.2-8.2h-6
		c0,0-1.3,4.4-7.6,4.4c-5.1,0-8.8-3.5-8.8-8.3h23v-3C76,39.5,73,32.1,61.9,32.1z M61.7,36c4.9,0,8.2,3,8.2,7.5H53.1
		C53.1,38.7,57.5,36,61.7,36z"/>
	<path class="st0" d="M76,22v32.1c0,1.8-0.1,4.4-0.1,4.4h5.7c0,0,0.2-1.8,0.2-3.5c0,0,2.8,4.4,10.6,4.4c8.1,0,13.6-5.6,13.6-13.7
		c0-7.5-5.1-13.6-13.6-13.6c-8,0-10.5,4.3-10.5,4.3V22H76z M90.9,36.2c5.5,0,9,4.1,9,9.6c0,5.9-4.1,9.7-9,9.7
		c-5.9,0-9.1-4.6-9.1-9.7C81.9,41.1,84.7,36.2,90.9,36.2z"/>
	<path class="st0" d="M120.3,32.1c-12.2,0-13,6.7-13,7.8h6.1c0,0,0.3-3.9,6.5-3.9c4,0,7.1,1.8,7.1,5.4v1.3h-7.1
		c-9.5,0-14.5,2.8-14.5,8.4c0,5.5,4.6,8.5,10.9,8.5c8.5,0,11.3-4.7,11.3-4.7c0,1.9,0.1,3.7,0.1,3.7h5.4c0,0-0.2-2.3-0.2-3.8V42.2
		C132.9,33.9,126.2,32.1,120.3,32.1L120.3,32.1z M127,46.4v1.7c0,2.2-1.4,7.6-9.3,7.6c-4.4,0-6.2-2.2-6.2-4.7
		C111.5,46.4,117.8,46.4,127,46.4z"/>
	<path class="st0" d="M129.6,33.2h6.8l9.8,19.7l9.8-19.7h6.2l-17.9,35.1h-6.5l5.2-9.8L129.6,33.2z"/>
</g>
</svg>
