<?xml version="1.0" encoding="utf-8"?>
<!-- Generator: Adobe Illustrator 22.1.0, SVG Export Plug-In . SVG Version: 6.00 Build 0)  -->
<svg version="1.1" id="Layer_1" xmlns="http://www.w3.org/2000/svg" xmlns:xlink="http://www.w3.org/1999/xlink" x="0px" y="0px"
	 viewBox="0 0 210 90" style="enable-background:new 0 0 210 90;" xml:space="preserve">
<style type="text/css">
	.st0{fill:#868686;}
</style>
<path class="st0" d="M68.8,29.3v12.5c0,0,4.4,0,6.7-0.2c1.9-0.4,2.3-0.4,2.5-2.3l0.6-2.7h2.1l-0.4,6l0.2,6h-2.1l-0.2-2.5
	c-0.4-1.7-1.3-2.1-2.5-2.3C74,43.6,69,43.6,69,43.6v10.5c0,2.1,1,2.9,3.3,2.9h7.1c2.3,0,4.4-0.2,5.9-3.3l1.9-4.2h1.7
	c-0.2,0.9-1,8.3-1.3,10c0,0-6.5-0.2-9.2-0.2H66l-7.3,0.2v-1.9l2.3-0.4c1.9-0.2,2.5-0.6,2.5-2.1c0,0,0.2-4.6,0.2-12.3
	c-0.2-7.5-0.2-12.1-0.2-12.1c0-1.4-0.6-1.7-2.3-2.1l-2.3-0.4v-1.9l7.1,0.2h13.6c2.7,0,7.3-0.4,7.3-0.4s-0.2,2.7-0.4,9.4h-1.9
	L84,33.1c-0.6-3.1-1.7-4.6-3.6-4.6H69.9C68.8,28.6,68.8,28.8,68.8,29.3z M96.3,30.7h2.1v7.1l6.9-0.4l-0.4,3.1l-6.7-0.4v12.5
	c0,3.6,1.3,5,3.1,5s3.1-1,3.7-1.9l1,1.3c-1,2.3-4,3.6-6.7,3.6c-3.3,0-6-2.1-6-5.9V40.3h-4v-1.7C92.8,38.2,95.3,36.1,96.3,30.7z
	 M110.9,52.4l1.3,3.1c0.4,1.3,1.7,2.7,4.4,2.7c2.9,0,4.2-1.4,4.2-3.3c0-5.9-11.3-4.2-11.3-11.9c0-4.4,3.6-6.5,8.2-6.5
	c2.1,0,5,0.4,6.7,1c-0.4,1.9-0.6,4-0.6,5.9h-1.7l-1.3-3.3c-0.4-0.9-1.7-1.4-3.3-1.4c-2.1,0-4.2,0.9-4.2,3.1
	c0,5.2,11.7,4.2,11.7,11.9c0,4.4-4,6.7-8.6,6.7c-3.6,0-7.1-1.4-7.1-1.4c0.4-2.1,0.2-4.2,0-6.5C109.2,52.4,110.9,52.4,110.9,52.4z
	 M124.1,68.6c0.4-1.9,0.9-4.2,1.3-6.5l1.9-0.2l0.6,3.6c0.2,0.9,0.6,1.4,2.1,1.4c2.3,0,5-1.3,7.7-6c-1.3-2.9-4.8-12.1-7.9-19.4
	c-0.9-1.9-1-2.1-2.1-2.3l-0.9-0.4v-1.4l5,0.2l6.3-0.4v1.7l-1.4,0.4c-1.3,0.2-1.7,0.9-1.7,1.4c0,0.2,0,0.4,0.2,0.6
	c0.4,1,3.1,8.6,5,13.8c1.7-3.6,5-11.5,5.4-12.9c0-0.6,0.2-0.6,0.2-1.3c0-0.9-0.4-1.4-1.7-1.7l-1.3-0.2v-1.9l4.8,0.2l4.4-0.2v1.7
	l-0.9,0.9c-1.7,0.6-1.9,0.9-2.5,2.3l-7.5,17.5c-4.4,10-9,10.9-12.3,10.9C127,70.2,125.6,69.5,124.1,68.6z"/>
</svg>
