<svg height="480pt" viewBox="-104 0 480 480.12192" width="480pt" xmlns="http://www.w3.org/2000/svg"><path d="m76.980469 368.175781 15.71875-2.953125 3.160156 16.828125-15.714844 2.953125zm0 0"/><path d="m83.21875 401.445312 15.71875-2.949218 9.308594 49.621094-15.714844 2.949218zm0 0"/><path d="m144.0625 160.121094v-8h2.054688c10.769531.007812 19.953124-7.800782 21.675781-18.429688 1.722656-10.628906-4.519531-20.941406-14.738281-24.335937l-28.921876-9.601563c-2.847656-.859375-4.621093-3.695312-4.148437-6.632812.472656-2.941406 3.046875-5.074219 6.019531-5h20.113282c3.28125 0 5.945312 2.660156 5.945312 5.945312v2.054688h16v-2.054688c-.011719-12.117187-9.828125-21.9375-21.945312-21.945312h-2.054688v-8h-16v8h-2.058594c-10.769531-.007813-19.949218 7.800781-21.675781 18.433594-1.722656 10.628906 4.519531 20.9375 14.742187 24.335937l28.917969 9.597656c2.851563.863281 4.621094 3.699219 4.148438 6.636719-.472657 2.9375-3.042969 5.074219-6.019531 4.996094h-20.113282c-3.28125 0-5.941406-2.660156-5.941406-5.941406v-2.058594h-16v2.058594c.007812 12.113281 9.828125 21.933593 21.941406 21.941406h2.058594v8zm0 0"/><path d="m136.0625 32.121094c-44.164062.050781-79.953125 35.839844-80 80h16c.039062-35.328125 28.667969-63.960938 64-64zm0 0"/><path d="m136.0625 192.121094c44.160156-.046875 79.949219-35.835938 80-80h-16c-.042969 35.332031-28.671875 63.960937-64 64zm0 0"/><path d="m56.0625 224.121094h-48c-4.417969 0-8 3.582031-8 8 .054688 48.578125 39.421875 87.945312 88 88h40v16h-80c-2.382812.003906-4.636719 1.0625-6.15625 2.894531-1.519531 1.835937-2.140625 4.246094-1.703125 6.585937l24 128c.714844 3.777344 4.011719 6.515626 7.859375 6.519532h128c3.84375-.003906 7.144531-2.742188 7.855469-6.519532l24-128c.4375-2.339843-.183594-4.75-1.703125-6.585937-1.519532-1.832031-3.773438-2.890625-6.152344-2.894531h-80v-16h40c48.574219-.054688 87.941406-39.421875 88-88 0-4.417969-3.582031-8-8-8h-48c-28.699219.03125-55.578125 14.066406-72 37.601562v-38.007812c60.144531-4.308594 106.082031-55.457032 103.925781-115.71875-2.152343-60.257813-51.628906-107.996094-111.925781-107.996094-60.300781 0-109.773438 47.738281-111.929688 107.996094-2.15625 60.261718 43.785157 111.410156 103.929688 115.71875v38.007812c-16.425781-23.535156-43.304688-37.570312-72-37.601562zm158.398438 128-21.039063 112h-114.722656l-21-112zm-126.398438-48c-36.652344-.042969-67.4375-27.578125-71.554688-64h39.554688c36.648438.046875 67.433594 27.582031 71.550781 64zm128-64h39.550781c-4.117187 36.421875-34.902343 63.957031-71.550781 64h-39.554688c4.117188-36.417969 34.902344-63.953125 71.554688-64zm-176-128c0-53.019532 42.980469-96 96-96s96 42.980468 96 96c0 53.019531-42.980469 96-96 96-52.996094-.054688-95.945312-43.003906-96-96zm0 0"/></svg>