<svg height="480pt" viewBox="0 0 480.02802 480" width="480pt" xmlns="http://www.w3.org/2000/svg"><path d="m376.015625 280.015625v-240c-.027344-22.082031-17.921875-39.9765625-40-40h-192c-22.082031.0234375-39.976563 17.917969-40 40v80h16v-56h240v216zm-256-232v-8c0-13.257813 10.742187-24 24-24h192c13.253906 0 24 10.742187 24 24v8zm0 0"/><path d="m120.015625 200.015625h-16v208c.023437 22.078125 17.917969 39.972656 40 40h56v-16h-56c-13.257813 0-24-10.746094-24-24v-8h88v-16h-88zm0 0"/><path d="m136.015625 80.015625h16v16h-16zm0 0"/><path d="m168.015625 80.015625h16v16h-16zm0 0"/><path d="m200.015625 80.015625h16v16h-16zm0 0"/><path d="m136.015625 240.015625c.066406 57.410156 46.589844 103.933594 104 104h16v-16h-16c-39.746094-.066406-74.492187-26.804687-84.742187-65.203125-10.246094-38.398438 6.558593-78.894531 40.984374-98.753906 34.425782-19.859375 77.894532-14.136719 106.007813 13.957031 28.109375 28.09375 33.859375 71.5625 14.019531 106l13.863282 8c18.523437-32.199219 18.484374-71.824219-.097657-103.984375s-52.894531-51.984375-90.035156-52.015625h-176v-16c.003906-3.109375-1.792969-5.9375-4.605469-7.257813-2.816406-1.316406-6.140625-.886718-8.523437 1.105469l-48 40c-1.828125 1.519531-2.886719 3.773438-2.886719 6.152344 0 2.375 1.058594 4.628906 2.886719 6.148437l48 40c2.382812 1.992188 5.707031 2.425782 8.523437 1.105469 2.8125-1.320312 4.609375-4.148437 4.605469-7.253906v-16h88.40625c-10.710937 16.714844-16.402344 36.148437-16.40625 56zm-80-72c-4.417969 0-8 3.582031-8 8v6.917969l-27.503906-22.917969 27.503906-22.921875v6.921875c0 4.417969 3.582031 8 8 8h128.796875c-7.195312 4.503906-13.808594 9.878906-19.695312 16zm0 0"/><path d="m168.015625 240.015625c0 39.761719 32.234375 72 72 72 39.761719 0 72-32.238281 72-72h-16c0 30.925781-25.074219 56-56 56-30.929687 0-56-25.074219-56-56 0-30.929687 25.070313-56 56-56v-16c-39.746094.042969-71.957031 32.253906-72 72zm0 0"/><path d="m232.015625 200.015625v8h-6.707031c-8.480469 0-15.707032 6.15625-17.066406 14.527344-1.355469 8.371093 3.558593 16.492187 11.605468 19.175781l35.277344 11.765625c.609375.199219.980469.808594.878906 1.441406-.101562.628907-.648437 1.089844-1.285156 1.089844h-29.410156c-.34375 0-.675782-.136719-.917969-.378906-.242187-.242188-.378906-.574219-.375-.917969v-6.703125h-16v6.703125c.011719 9.546875 7.746094 17.28125 17.292969 17.296875h6.707031v8h16v-8h6.703125c8.480469-.003906 15.707031-6.15625 17.066406-14.53125 1.355469-8.371094-3.558594-16.492187-11.601562-19.175781l-35.28125-11.765625c-.605469-.199219-.980469-.808594-.878906-1.441407.101562-.628906.648437-1.089843 1.285156-1.085937h29.410156c.34375-.003906.675781.132813.917969.375.242187.242187.378906.574219.378906.917969v6.707031h16v-6.707031c-.015625-9.546875-7.75-17.28125-17.296875-17.292969h-6.703125v-8zm0 0"/><path d="m429.140625 273.863281c-2.382813-1.992187-5.707031-2.421875-8.519531-1.105469-2.816406 1.320313-4.613282 4.148438-4.605469 7.257813v16h-72v16h80c4.417969 0 8-3.582031 8-8v-6.921875l27.496094 22.921875-27.496094 22.917969v-6.917969c0-4.417969-3.582031-8-8-8h-88v16h80v16c0 3.101563 1.796875 5.921875 4.605469 7.238281 1.0625.503906 2.21875.761719 3.394531.761719 1.871094-.003906 3.683594-.65625 5.125-1.851563l48-40c1.828125-1.519531 2.886719-3.773437 2.886719-6.148437 0-2.378906-1.058594-4.632813-2.886719-6.152344zm0 0"/><path d="m136.015625 328.015625v32c0 4.417969 3.582031 8 8 8h32v-16h-24v-24zm0 0"/><path d="m344.015625 152.015625v-32c0-4.417969-3.582031-8-8-8h-32v16h24v24zm0 0"/><path d="m396.015625 360.335938c-6.980469-1.160157-14.117187.8125-19.511719 5.390624-.160156.128907-.3125.261719-.472656.40625-9.101562-8.167968-22.898438-8.167968-32 0-6.617188-5.671874-15.71875-7.476562-24-4.757812v-40.503906c.148438-11.941406-8.273438-22.277344-20-24.535156-6.972656-1.183594-14.109375.765624-19.511719 5.328124-5.398437 4.566407-8.511719 11.28125-8.503906 18.351563v97.871094l-21.234375-12.738281c-6.480469-3.914063-14.523438-4.21875-21.277344-.796876l-1.265625.621094c-6.9375 3.476563-11.550781 10.328125-12.15625 18.066406-.605469 7.734376 2.882813 15.222657 9.195313 19.734376l50.089844 35.769531c1.355468.960937 2.980468 1.476562 4.648437 1.472656h128c4.417969 0 8-3.582031 8-8v-87.144531c.148437-11.941406-8.277344-22.277344-20-24.535156zm4 103.679687h-117.441406l-48-34.28125c-1.753907-1.246094-2.726563-3.320313-2.5625-5.460937.164062-2.144532 1.441406-4.046876 3.363281-5.011719l1.253906-.625c1.867188-.945313 4.089844-.859375 5.882813.226562l33.351562 20c2.46875 1.5 5.558594 1.550781 8.078125.128907 2.519532-1.417969 4.074219-4.085938 4.074219-6.976563v-112c-.003906-2.351563 1.03125-4.585937 2.824219-6.105469 1.8125-1.550781 4.226562-2.203125 6.574218-1.777344 3.996094.976563 6.75 4.628907 6.601563 8.738282v63.144531c0 4.417969 3.582031 8 8 8s8-3.582031 8-8 3.582031-8 8-8 8 3.582031 8 8 3.582031 8 8 8 8-3.582031 8-8 3.582031-8 8-8 8 3.582031 8 8 3.582031 8 8 8 8-3.582031 8-8c-.003906-2.367187 1.042969-4.613281 2.859375-6.136719 1.8125-1.519531 4.207031-2.160156 6.539062-1.746094 3.996094.976563 6.75 4.628907 6.601563 8.738282zm0 0"/></svg>