<svg height="480pt" viewBox="0 0 480 480" width="480pt" xmlns="http://www.w3.org/2000/svg"><path d="m112 72v368c.027344 22.082031 17.917969 39.972656 40 40h176v-16c0-.902344-.152344-1.796875-.449219-2.648438-.078125-.214843-.238281-.390624-.335937-.597656-.246094-.625-.570313-1.214844-.96875-1.753906-1.832032-2.335938-3.511719-4.789062-5.023438-7.34375-.480468-.800781-.949218-1.601562-1.398437-2.398438-1.046875-1.90625-1.96875-3.859374-2.816407-5.824218-.734374-1.746094-1.390624-3.511719-1.984374-5.304688-.398438-1.21875-.800782-2.402344-1.128907-3.648437-.445312-1.664063-.847656-3.34375-1.167969-5.039063-.132812-.722656-.222656-1.449218-.335937-2.167968-.519531-3.347657-.785156-6.726563-.796875-10.113282 0-.6875 0-1.375 0-2.0625.046875-1.851562.183594-3.707031.390625-5.554687.105469-.96875.261719-1.925781.414063-2.886719.328124-2.195312.769531-4.371094 1.320312-6.519531.511719-1.960938 1.074219-3.90625 1.761719-5.832031.351562-.976563.726562-1.945313 1.128906-2.90625.988281-2.453126 2.121094-4.851563 3.390625-7.175782.144531-.261718.257812-.535156.40625-.796875l6.523438-11.449219c.210937-.433593.378906-.886718.503906-1.351562 1.332031-2.847656.597656-6.234375-1.792969-8.273438l-68-68c-.257813-.246093-.441406-.558593-.679687-.800781-.679688-.71875-1.304688-1.484375-1.871094-2.292969-.304688-.464843-.515625-.976562-.800782-1.464843-.410156-.679688-.777343-1.382813-1.105468-2.105469 0-.078125-.039063-.160156-.070313-.238281-1.867187-4.769531-1.867187-10.066407 0-14.832031 0-.074219.039063-.152344.070313-.226563.335937-.746094.71875-1.472656 1.144531-2.175781.257813-.453125.449219-.949219.742187-1.390625.746094-1.125 1.597657-2.175781 2.554688-3.128907 7.929688-7.902343 20.757812-7.902343 28.6875 0l84 84 11.3125-11.3125-13.625-13.695312v-78.503906l22.183594 26.761718c11.484375 13.121094 17.816406 29.96875 17.816406 47.40625v159.648438h16v-159.648438c.019531-21.234374-7.652344-41.761718-21.601562-57.777343l-34.398438-41.453125v-149.121094c-.027344-22.082031-17.917969-39.972656-40-40h-176c-22.082031.027344-39.972656 17.917969-40 40zm16 368v-24h167.585938v.800781c-.011719 4.0625.28125 8.121094.871093 12.144531.09375.6875.160157 1.375.269531 2.0625.363282 2.070313.800782 4.121094 1.335938 6.167969.328125 1.304688.722656 2.585938 1.105469 3.863281.71875 2.402344 1.519531 4.714844 2.457031 7.023438.933594 2.3125 1.871094 4.425781 2.960938 6.578125.558593 1.101563 1.148437 2.183594 1.765624 3.269531 1.167969 2.082032 2.402344 4.097656 3.792969 6.074219h-158.144531c-13.25 0-23.992188-10.734375-24-23.984375zm130.335938-193.601562c-4.492188 1.820312-8.574219 4.527343-12 7.953124-1.730469 1.738282-3.285157 3.644532-4.640626 5.6875l-.039062.074219c-7.957031 12.050781-7.957031 27.6875 0 39.742188l.070312.136719c1.355469 2.042968 2.910157 3.945312 4.640626 5.679687l62.320312 62.328125h-140.6875c-4.417969 0-8-3.582031-8-8v-224c0-4.417969 3.582031-8 8-8h144c4.417969 0 8 3.582031 8 8v140.6875l-22.34375-22.34375c-10.328125-10.292969-25.804688-13.421875-39.320312-7.945312zm77.664062 46.289062v-156.6875c0-13.253906-10.746094-24-24-24h-144c-13.253906 0-24 10.746094-24 24v224c0 13.253906 10.746094 24 24 24h134.320312c-.160156.375-.289062.800781-.441406 1.144531-.480468 1.160157-.917968 2.320313-1.351562 3.488281-.800782 2.214844-1.480469 4.457032-2.078125 6.71875-.417969 1.550782-.855469 3.089844-1.183594 4.648438h-169.265625v-304h224v212.6875zm-184-244.6875h176c13.253906 0 24 10.746094 24 24v8h-224v-8c0-13.253906 10.746094-24 24-24zm0 0"/><path d="m232 432h16v16h-16zm0 0"/><path d="m200 272c-9.484375-.042969-18.097656 5.53125-21.945312 14.199219-3.847657 8.667969-2.207032 18.792969 4.183593 25.800781-8.714843 9.589844-8.242187 24.363281 1.0625 33.378906 9.308594 9.019532 24.089844 9.019532 33.398438 0 9.304687-9.015625 9.777343-23.789062 1.0625-33.378906 6.390625-7.007812 8.03125-17.132812 4.183593-25.800781-3.847656-8.667969-12.460937-14.242188-21.945312-14.199219zm0 16c4.417969 0 8 3.582031 8 8s-3.582031 8-8 8-8-3.582031-8-8 3.582031-8 8-8zm0 48c-4.417969 0-8-3.582031-8-8s3.582031-8 8-8 8 3.582031 8 8-3.582031 8-8 8zm0 0"/><path d="m296 144h-32c-4.417969 0-8 3.582031-8 8v32c0 4.417969 3.582031 8 8 8h32c4.417969 0 8-3.582031 8-8v-32c0-4.417969-3.582031-8-8-8zm-8 32h-16v-16h16zm0 0"/><path d="m200 144h16v16h-16zm0 0"/><path d="m200 176h16v16h-16zm0 0"/><path d="m200 208h16v16h-16zm0 0"/><path d="m200 240h16v16h-16zm0 0"/><path d="m74.34375 125.65625c1.5 1.5 3.535156 2.34375 5.65625 2.34375h16v-16h-12.6875l-45.65625-45.65625c-1.5-1.5-3.535156-2.34375-5.65625-2.34375h-32v16h28.6875zm0 0"/><path d="m54.246094 3c-1.515625-1.898438-3.816406-3-6.246094-3h-16v16h12.160156l29.601563 37c1.515625 1.894531 3.8125 3 6.238281 3h16v-16h-12.160156zm0 0"/><path d="m0 0h16v16h-16zm0 0"/><path d="m80 72h16v16h-16zm0 0"/><path d="m42.34375 181.65625c1.5 1.5 3.535156 2.34375 5.65625 2.34375h48v-16h-44.6875l-21.65625-21.65625c-1.5-1.5-3.535156-2.34375-5.65625-2.34375h-24v16h20.6875zm0 0"/><path d="m0 104h32v16h-32zm0 0"/><path d="m0 32h40v16h-40zm0 0"/><path d="m45.65625 202.34375c-1.5-1.5-3.535156-2.34375-5.65625-2.34375h-8v16h4.6875l13.65625 13.65625c1.5 1.5 3.535156 2.34375 5.65625 2.34375h40v-16h-36.6875zm0 0"/><path d="m37.128906 414.144531 45.765625-38.144531h13.105469v-16h-16c-1.875 0-3.6875.65625-5.128906 1.855469l-45.765625 38.144531h-29.105469v16h32c1.875 0 3.6875-.65625 5.128906-1.855469zm0 0"/><path d="m74.34375 434.34375-29.65625 29.65625h-12.6875v16h16c2.121094 0 4.15625-.84375 5.65625-2.34375l29.65625-29.65625h12.6875v-16h-16c-2.121094 0-4.15625.84375-5.65625 2.34375zm0 0"/><path d="m0 464h16v16h-16zm0 0"/><path d="m80 392h16v16h-16zm0 0"/><path d="m96 296h-32c-2.121094 0-4.15625.84375-5.65625 2.34375l-21.65625 21.65625h-4.6875v16h8c2.121094 0 4.15625-.84375 5.65625-2.34375l21.65625-21.65625h28.6875zm0 0"/><path d="m0 360h32v16h-32zm0 0"/><path d="m0 432h16v16h-16zm0 0"/><path d="m29.65625 277.65625 13.65625-13.65625h52.6875v-16h-56c-2.121094 0-4.15625.84375-5.65625 2.34375l-13.65625 13.65625h-20.6875v16h24c2.121094 0 4.15625-.84375 5.65625-2.34375zm0 0"/><path d="m72 328h24v16h-24zm0 0"/><path d="m0 200h16v16h-16zm0 0"/><path d="m0 320h16v16h-16zm0 0"/><path d="m442.34375 66.34375-45.65625 45.65625h-12.6875v16h16c2.121094 0 4.15625-.84375 5.65625-2.34375l45.65625-45.65625h28.6875v-16h-32c-2.121094 0-4.15625.84375-5.65625 2.34375zm0 0"/><path d="m406.246094 53 29.59375-37h12.160156v-16h-16c-2.429688 0-4.730469 1.101562-6.246094 3l-29.59375 37h-12.160156v16h16c2.429688 0 4.730469-1.101562 6.246094-3zm0 0"/><path d="m464 0h16v16h-16zm0 0"/><path d="m384 72h16v16h-16zm0 0"/><path d="m450.34375 146.34375-21.65625 21.65625h-44.6875v16h48c2.121094 0 4.15625-.84375 5.65625-2.34375l21.65625-21.65625h20.6875v-16h-24c-2.121094 0-4.15625.84375-5.65625 2.34375zm0 0"/><path d="m448 104h32v16h-32zm0 0"/><path d="m440 32h40v16h-40zm0 0"/><path d="m429.65625 229.65625 13.65625-13.65625h4.6875v-16h-8c-2.121094 0-4.15625.84375-5.65625 2.34375l-13.65625 13.65625h-20.6875v16h24c2.121094 0 4.15625-.84375 5.65625-2.34375zm0 0"/><path d="m464 200h16v16h-16zm0 0"/><path d="m98.34375 13.65625 11.316406-11.3125 15.996094 15.996094-11.3125 11.3125zm0 0"/><path d="m354.339844 18.34375 16-15.996094 11.3125 11.3125-15.996094 15.996094zm0 0"/><path d="m312 0h16v16h-16zm0 0"/><path d="m256 0h16v16h-16zm0 0"/><path d="m200 0h16v16h-16zm0 0"/><path d="m144 0h16v16h-16zm0 0"/></svg>