<?xml version="1.0" encoding="utf-8"?>
<!-- Generator: Adobe Illustrator 22.1.0, SVG Export Plug-In . SVG Version: 6.00 Build 0)  -->
<svg version="1.1" id="Layer_1" xmlns="http://www.w3.org/2000/svg" xmlns:xlink="http://www.w3.org/1999/xlink" x="0px" y="0px"
	 viewBox="0 0 1535 216.5" style="enable-background:new 0 0 1535 216.5;" xml:space="preserve">
<style type="text/css">
	.st0{fill:#0A9600;}
</style>
<g>
	<path class="st0" d="M577,84.6v95.8h-35V84.6h-35.4V54.1h105.7v30.5H577z"/>
	<path class="st0" d="M694.1,142.3h-55.6c1.1,10.5,7.2,15.1,16.1,15.1c8.3,0,15.2-1.8,24.5-6.7l12.4,20.8
		c-11.7,6.9-23.8,10.8-38.6,10.8c-28.5,0-44.2-20.2-44.2-49.3c0-32.7,18.4-49.4,43.3-49.4c26,0,42.2,17.1,42.2,52.3
		C694.2,138.7,694.2,140.7,694.1,142.3z M651.1,107.7c-7.4,0-11.5,5.1-12.6,14.4h27.1C663.9,112.5,660.7,107.7,651.1,107.7z"/>
	<path class="st0" d="M754.5,182.4c-27.8,0-44.4-17.7-44.4-49.6c0-29.1,14.8-49.1,45.1-49.1c17.9,0,28.1,8.3,36.4,21.6l-22.4,17
		c-4.5-8.3-7.6-12.3-14.6-12.3c-8.3,0-12.5,8.3-12.5,23.3c0,15,4.5,22.7,13.4,22.7c6.1,0,10.5-3.4,16.4-12.3l20.6,16.1
		C781.5,176,771.3,182.4,754.5,182.4z"/>
	<path class="st0" d="M865.2,180.4v-53.8c0-12.3-4.1-15.5-10.8-15.5c-6.9,0-11,3.2-11,15.2v54.1h-32.5V61.8l32.5-13V92
		c6-4.5,12.6-8.3,23.8-8.3c20.8,0,30.7,13.9,30.7,38.8v57.9H865.2z"/>
	<path d="M975.6,182.4c-37.5,0-57.6-27.8-57.6-65.1c0-40.6,23.8-65.1,57.7-65.1c31,0,43.3,13.4,52,37.2L996,101.7
		c-4.5-11.7-8.8-19.1-20.4-19.1c-14.6,0-20.9,14.6-20.9,34.6c0,19.3,6.1,34.6,21.3,34.6c11,0,15.7-6,22.5-17.9l29.6,15.7
		C1019.7,166.3,1005.6,182.4,975.6,182.4z"/>
	<path d="M1108,121.4c-4.1-4.5-8.8-7.9-15.1-7.9c-7.9,0-12.8,3.8-12.8,15.3v51.6h-32.5V85.7h32.5v6.9c5.6-5.4,11.9-8.8,20.2-8.8
		c6.9,0,11.5,1.6,15.3,4L1108,121.4z"/>
	<path d="M1185.2,180.4v-6.3c-5.8,4.5-12.6,8.3-23.6,8.3c-20.8,0-30.7-13.9-30.7-38.8V85.7h32.7v53.8c0,12.3,4.1,15.5,10.8,15.5
		c6.7,0,10.8-3.2,10.8-15.2V85.7h32.7v94.7H1185.2z"/>
	<path d="M1295.6,180.4v-53.8c0-12.3-4.1-15.5-10.8-15.5c-6.9,0-11,3.2-11,15.2v54.1h-32.5V85.7h32.5V92c6-4.5,12.6-8.3,23.8-8.3
		c20.8,0,30.7,13.9,30.7,38.8v57.9H1295.6z"/>
	<path d="M1391.6,182.4c-27.8,0-44.4-17.7-44.4-49.6c0-29.1,14.8-49.1,45.1-49.1c17.9,0,28.1,8.3,36.4,21.6l-22.4,17
		c-4.5-8.3-7.6-12.3-14.6-12.3c-8.3,0-12.5,8.3-12.5,23.3c0,15,4.5,22.7,13.4,22.7c6.1,0,10.5-3.4,16.4-12.3l20.6,16.1
		C1418.6,176,1408.4,182.4,1391.6,182.4z"/>
	<path d="M1502.3,180.4v-53.8c0-12.3-4.1-15.5-10.8-15.5c-6.9,0-11,3.2-11,15.2v54.1H1448V61.8l32.5-13V92c6-4.5,12.6-8.3,23.8-8.3
		c20.8,0,30.7,13.9,30.7,38.8v57.9H1502.3z"/>
</g>
<g>
	<polygon class="st0" points="0,0 0,72.2 72.2,72.2 72.2,216.5 144.3,216.5 144.3,72.2 216.5,72.2 216.5,0 	"/>
	<polygon class="st0" points="288.6,144.3 288.6,72.2 216.5,72.2 216.5,216.5 432.9,216.5 432.9,144.3 	"/>
	<rect x="288.6" class="st0" width="144.3" height="72.2"/>
</g>
</svg>
