<?xml version="1.0" encoding="utf-8"?>
<!-- Generator: Adobe Illustrator 22.1.0, SVG Export Plug-In . SVG Version: 6.00 Build 0)  -->
<svg version="1.1" id="Layer_1" xmlns="http://www.w3.org/2000/svg" xmlns:xlink="http://www.w3.org/1999/xlink" x="0px" y="0px"
	 viewBox="0 0 210 90" style="enable-background:new 0 0 210 90;" xml:space="preserve">
<style type="text/css">
	.st0{fill:#686868;}
</style>
<path id="Shape" class="st0" d="M80.7,39.8v2.2h0.1c0.8-1.1,2-2.6,4.9-2.6c2.2,0,3.9,1.1,4.6,2.9h0.1c0.7-0.9,1.3-1.6,2.1-2
	c0.9-0.6,2-0.9,3.4-0.9c3,0,5.6,2,5.6,7.1v9.5h-4.6v-8.8c0-2.6-0.9-4-2.8-4c-1.3,0-2.4,0.9-2.7,2c-0.1,0.3-0.2,0.9-0.2,1.3v9.5h-4.6
	v-9.2c0-2.1-0.9-3.7-2.7-3.7c-1.5,0-2.4,1.1-2.8,2.1c-0.1,0.4-0.2,0.9-0.2,1.3v9.4h-4.6V39.8H80.7z M124.9,39.8v3h0.1
	c0.8-2.4,2.8-3.4,4.6-3.4c0.4,0,0.7,0,1,0.1v4.3c-0.4-0.1-0.8-0.1-1.3-0.1c-2,0-3.4,1.1-3.7,2.8c-0.1,0.3-0.1,0.8-0.1,1.2v8.3h-4.7
	V39.8H124.9z M137,34.6v5h3.9v4.1H137v6c0,2,0.6,2.9,2,2.9c0.7,0,1.2-0.1,1.7-0.2l0.1,3.4c-0.7,0.2-1.9,0.4-3.2,0.4
	c-1.6,0-2.9-0.6-3.7-1.3c-0.9-0.9-1.3-2.5-1.3-4.7V34.6H137z M73.2,56.1h-4.6V34.6h4.6V56.1z M61,50.2c0,0.3,0,0.6-0.1,0.9
	c-0.3,1.1-1.6,2-3,2c-1.2,0-2.2-0.7-2.2-2.1c0-2.2,2.6-2.8,5.5-2.8L61,50.2L61,50.2z M65.5,46.4c0-3.7-1.7-6.9-7.2-6.9
	c-2.8,0-5,0.8-6.3,1.5l0.9,2.9c1.1-0.7,2.9-1.2,4.6-1.2c2.8,0,3.2,1.6,3.2,2.5v0.2c-6,0-10,2-10,6.2c0,2.6,1.9,4.9,5.4,4.9
	c2.1,0,3.8-0.8,4.9-2.1h0.1c0,0,0.7,2.8,4.5,1.7c-0.2-1.1-0.2-2.4-0.2-3.9L65.5,46.4L65.5,46.4z M28.1,34.6c0.4,2.2,1.8,8.8,1.8,8.8
	c0.6,2.7,1.1,5.6,1.5,7.8h0.1c0.3-2.4,1-4.7,1.6-7.5l2.2-9.3h4.9l2.1,9.5c0.6,2.7,1,4.7,1.3,7.2h0.1c0.3-2.5,0.9-4.6,1.5-7.3l2-9.3
	h4.8l-6,21.5c-3.8,0.8-5.3-0.7-5.7-3c-0.6-2.4-1.6-6.7-1.6-6.7c-0.6-2.5-0.9-4.1-1.2-6.6l0,0c-0.4,2.5-0.8,4.1-1.5,6.6l-2.5,9.7
	c-3.8,0.8-5.2-0.3-5.9-3.4c-0.7-2.6-4.6-18.3-4.6-18.3L28.1,34.6L28.1,34.6z M113.3,50.2c0,0.3,0,0.6-0.1,0.9c-0.3,1.1-1.6,2-3,2
	c-1.2,0-2.2-0.7-2.2-2.1c0-2.2,2.6-2.8,5.5-2.8L113.3,50.2L113.3,50.2z M117.8,46.4c0-3.7-1.7-6.9-7.2-6.9c-2.8,0-5,0.8-6.3,1.5
	l0.9,2.9c1.1-0.7,2.9-1.2,4.6-1.2c2.8,0,3.2,1.6,3.2,2.5v0.2c-6,0-10,2-10,6.2c0,2.6,1.9,4.9,5.4,4.9c2.1,0,3.8-0.8,4.9-2.1h0.1
	c0,0,0.7,2.8,4.5,1.7c-0.2-1.1-0.2-2.4-0.2-3.9L117.8,46.4L117.8,46.4z"/>
<path id="Shape_1_" class="st0" d="M159.4,48.7c0.4,0.8,0.4,1.7-0.1,2l-8.3,5.8c-0.9,0.4-2.1-0.1-2.9-1.3c-0.8-1.2-0.6-2.7,0.2-3.2
	l9.2-4.3C158.2,47.4,158.9,47.9,159.4,48.7 M170.3,48.7c0.4-0.8,1.2-1.2,1.8-1l9.2,4.3c0.9,0.4,1,1.9,0.2,3.2
	c-0.8,1.2-2,1.9-2.9,1.3l-8.3-5.8C169.9,50.2,169.8,49.5,170.3,48.7 M164.9,51.8c0.9,0,1.7,0.4,1.8,1.1l0.9,10.1
	c0,1-1.1,1.8-2.6,1.8c-1.5,0-2.6-0.8-2.6-1.8l0.9-10.1C163.2,52.3,164,51.8,164.9,51.8 M170.4,40.3l8.3-5.8c0.9-0.4,2.1,0.1,2.9,1.3
	c0.8,1.2,0.6,2.7-0.2,3.2l-9.2,4.3c-0.6,0.2-1.3-0.2-1.8-1S169.9,40.6,170.4,40.3 M157.6,43.3l-9.2-4.3c-0.9-0.4-1-1.9-0.2-3.2
	c0.8-1.2,2-1.9,2.9-1.3l8.3,5.8c0.4,0.3,0.6,1.2,0.1,2S158.2,43.5,157.6,43.3 M163.1,38L162.2,28c0-1,1.1-1.8,2.6-1.8
	c1.5,0,2.6,0.8,2.6,1.8L166.4,38c-0.1,0.6-0.9,1.1-1.8,1.1C164,39.2,163.2,38.7,163.1,38 M183.7,56.5v-0.2h0.2c0.1,0,0.1,0,0.1,0.1
	s0,0.1-0.1,0.1C183.9,56.5,183.7,56.5,183.7,56.5z M183.6,57L183.6,57h0.1l0,0v-0.3h0.1l0.1,0.3l0,0h0.1c0,0,0.1,0,0-0.1
	c0-0.1-0.1-0.2-0.1-0.3c0.1,0,0.2-0.1,0.2-0.3s-0.1-0.3-0.3-0.3h-0.3l0,0V57H183.6z M183.1,56.5c0-0.4,0.3-0.8,0.8-0.8
	c0.4,0,0.8,0.3,0.8,0.8c0,0.4-0.3,0.8-0.8,0.8C183.5,57.3,183.1,57,183.1,56.5 M182.9,56.5c0,0.6,0.4,0.9,0.9,0.9
	c0.4,0,0.9-0.4,0.9-0.9c0-0.6-0.4-0.9-0.9-0.9C183.4,55.6,182.9,56.1,182.9,56.5"/>
</svg>
